<?xml version="1.0" encoding="utf-8"?>
<!-- Generator: Adobe Illustrator 20.1.0, SVG Export Plug-In . SVG Version: 6.00 Build 0)  -->
<svg version="1.1" id="Layer_1" xmlns="http://www.w3.org/2000/svg" xmlns:xlink="http://www.w3.org/1999/xlink" x="0px" y="0px"
	 viewBox="0 0 338.9 519.8" style="enable-background:new 0 0 338.9 519.8;" xml:space="preserve">
<style type="text/css">
	.st0{fill:#B21F7C;}
	.st1{fill:#4B4B4B;}
	.st2{opacity:0.4;}
</style>
<g>
</g>
<g>
</g>
<g>
	<path class="st0" d="M195.9,1.5L195.9,1.5L195.9,1.5C195.8,1.5,195.9,1.5,195.9,1.5z"/>
</g>
<path class="st1" d="M256.2,3c-12.2-4.1-24.1-3.9-35.4-0.1l-144,41.5v0C33.9,53.5,0,105.1,0,175.6v155.5v0.1V409h0
	c0,43,18.9,84.2,43.8,92.5c0,0,0,0,0,0L93.4,518c0,0,0,0,0,0c30.3,10.1,56.7-23.4,56.7-75.6h0v-95.2l106.2-11.8
	c48.1-5.3,82.7-75.4,82.7-157C338.9,96.7,304.3,19,256.2,3z M195.6,18.7c-0.4,0.4-0.8,0.7-1.1,1.1C194.8,19.4,195.2,19.1,195.6,18.7
	z M219.1,3.6C219,3.6,219,3.6,219.1,3.6C219,3.6,219,3.6,219.1,3.6z M217.3,4.3c-0.1,0-0.2,0.1-0.3,0.1C217,4.4,217.1,4.3,217.3,4.3
	z M215.5,5c-0.2,0.1-0.3,0.1-0.5,0.2C215.2,5.2,215.3,5.1,215.5,5z M213.7,5.9c-0.2,0.1-0.4,0.2-0.6,0.3
	C213.3,6.1,213.5,6,213.7,5.9z M211.9,6.8c-0.2,0.1-0.4,0.2-0.6,0.3C211.5,7,211.7,6.9,211.9,6.8z M210.2,7.7
	c-0.2,0.1-0.5,0.3-0.7,0.4C209.7,8,210,7.9,210.2,7.7z M208.5,8.7c-0.2,0.2-0.5,0.3-0.7,0.5C208,9,208.2,8.9,208.5,8.7z M206.8,9.8
	c-0.3,0.2-0.5,0.3-0.8,0.5C206.3,10.2,206.5,10,206.8,9.8z M205.1,10.9c-0.3,0.2-0.5,0.4-0.8,0.6C204.6,11.3,204.8,11.1,205.1,10.9z
	 M203.4,12.1c-0.3,0.2-0.6,0.4-0.8,0.6C202.9,12.5,203.2,12.3,203.4,12.1z M201.8,13.4c-0.3,0.2-0.6,0.5-0.9,0.7
	C201.2,13.8,201.5,13.6,201.8,13.4z M200.2,14.6c-0.3,0.3-0.6,0.5-0.9,0.8C199.6,15.1,199.9,14.9,200.2,14.6z M198.6,16
	c-0.3,0.3-0.6,0.6-1,0.8C198,16.5,198.3,16.3,198.6,16z M197.1,17.3c-0.3,0.3-0.7,0.6-1,1C196.4,18,196.7,17.7,197.1,17.3z
	 M150.1,302.4v-145c0-62.2,18-111.4,44.1-137.3c-14.7,14.6-26.8,36.5-34.6,64c19.8,27.7,32,66.3,32,106.5
	C191.5,236.9,175.4,278.6,150.1,302.4z"/>
<path class="st2" d="M256.2,3c-40.8-13.6-79.4,20.1-96.7,81.1c19.8,27.7,32,66.3,32,106.5c0,46.3-16.1,88-41.5,111.8v44.7
	l106.2-11.8c48.1-5.3,82.7-75.4,82.7-157C338.9,96.7,304.3,19,256.2,3z"/>
</svg>
